@startuml
'https://plantuml.com/class-diagram

'温度センサー未実装

class OperationController {
+turnOn(ModeButton b, Volume v, Direction d)
+turnOnWithAutoDirection(ModeButton b, Volume v)
+turnOnWithAutoVolume(ModeButton b, Direction d)
+turnOnWithAutoAirflow(ModeButton b)
+turnOnAutoMode()
+turnOff()
}

OperationController -right-> OperationMode

abstract class OperationMode {
-OutdoorUnit outdoorUnit
-IndoorUnit indoorUnit
+operate()
}

OperationMode <|-up- Cooler
OperationMode <|-up- Heater
OperationMode <|-up- Auto

OperationMode -- OutdoorUnit
OperationMode o-right- IndoorUnit

class Cooler {
operate()
}

class Heater {
operate()
}

class Auto {
operate()
}


'意図がindoorUnitと少し違うことを明確にするためにあえて違う名前にしてみた
class OutdoorUnit {
+releaseAir(Catalyst catalyst)
+absorbAir(Catalyst catalyst)
+compress(Catalyst catalyst)
+decompress(Catalyst catalyst)
}

class IndoorUnit {
-AirFlowController airFlowController
+blow(Catalyst catalyst)
+absorb(Catalyst catalyst)
}

IndoorUnit o-right- AirFlowController

interface AirFlowController {
'触媒と風量から空気を生成する
void blow(Catalyst catalyst)
'触媒を通して温度（未実装）から空気を取り込む
void absorb(Catalyst catalyst)
}

AirFlowController <|-- ConstantAirFlowController
AirFlowController <|-- AutoAirFlowController
AirFlowController <|-- AutoDirectionController
AirFlowController <|-- AutoVolumeController

class ConstantAirFlowController {
-Volume volume
-Direction direction
+void blow(Catalyst catalyst)
+void absorb(Catalyst catalyst)
}

class AutoAirFlowController {
+void blow(Catalyst catalyst)
+void absorb(Catalyst catalyst)
}

class AutoDirectionController {
+void blow(Catalyst catalyst)
+void absorb(Catalyst catalyst)
}

class AutoVolumeController {
+void blow(Catalyst catalyst)
+void absorb(Catalyst catalyst)
}

ConstantAirFlowController --> Direction
ConstantAirFlowController --> Volume
AutoVolumeController --> Direction
AutoDirectionController --> Volume

enum Direction {
}

enum Volume {
}

@enduml